<svg xmlns="http://www.w3.org/2000/svg" width="300" height="300" viewBox="0 0 2858 2860" shape-rendering="geometricPrecision" text-rendering="geometricPrecision" image-rendering="optimizeQuality" fill-rule="evenodd" clip-rule="evenodd"><defs><style>.fil3{fill:#d4a69b}.fil5{fill:#568021}.fil1,.fil2,.fil5,.fil6{fill-rule:nonzero}.fil6{fill:#629c62}.fil1{fill:#9c696f}.fil2{fill:#9c6980}.fil0,.fil4,.fil7{fill-rule:nonzero}.fil4{fill:#a3d1a3}.fil7{fill:#d4f7d4}.fil0{fill:#dbc7d0}</style></defs><g id="Слой_x0020_1"><path class="fil0" d="M2821 465l-128 820c-392 155-1170 1458-1461 1575C851 2640 27 2202 27 2202c-6-384 9-569 9-569l108-112S2711 433 2821 465z"/><path class="fil1" d="M2693 1285c-388 154-1155 1432-1453 1571 18-83 14-261 14-261s38-70 6-60v-117l14-75 74-99-89 66s-16-105 14-217c187-153 1098-1276 1471-1613 41-12 68-18 77-15l-128 820z"/><path class="fil1" d="M105 1560l39-39s21-10 60-27c243 123 1253 642 1253 642l-187 89c-89-55-1029-569-1165-665z"/><path class="fil0" d="M2858 439C2627 328 1887 16 1727 0 1380 182 617 1506 0 1413c534 379 1252 779 1252 779 460-319 1083-1465 1606-1753z"/><path class="fil2" d="M671 1105c0 1-1 1-1 1 206 72 964 507 1074 570 152-192 310-406 469-604-179-94-933-417-1061-475-151 175-314 359-481 508z"/><path class="fil3" d="M1316 404l1054 472c-241 317-486 631-741 942L551 1206c277-228 526-506 765-802z"/><path class="fil4" d="M2239 1718c2-193 0-626-2-669-171-92-1003-447-1081-485-278 209-469 516-469 516 222 77 1087 577 1087 577 50 141 8 609 8 609s380-412 457-548z"/><g id="_1053070368"><path class="fil5" d="M978 2614l21 6c-5-1-12-3-21-6z"/><path class="fil1" d="M913 2206c-260-129-862-450-862-450l-7 68-6 193s309 209 330 233c-79-49-296-181-337-206-1-145 2-251 5-319 35 14 723 375 877 481zm-882-51v-74l8 43s781 435 939 490c-265-75-831-380-947-459z"/></g><path class="fil6" d="M2236 1049h1c2 43 4 476 2 669-77 136-457 548-457 548s42-468-8-609c0 0-7-4-20-12 144-82 397-452 482-596z"/><path class="fil1" d="M621 1365c-77-5-141 41-142 104-1 62 60 117 138 122 77 6 141-41 142-103 1-63-61-117-138-123z"/><path class="fil7" d="M1354 709c98 63 728 311 730 349l1 38s-276 421-332 470c119-34 388-451 414-503-45-63-623-312-813-354z"/><path class="fil1" d="M1419 369c139-128 282-254 317-274 36-21 520 169 716 238-140-118-654-299-731-277-85 32-285 276-302 313z"/></g></svg>