<svg xmlns="http://www.w3.org/2000/svg" width="300" height="212" viewBox="0 0 2675 1887" shape-rendering="geometricPrecision" text-rendering="geometricPrecision" image-rendering="optimizeQuality" fill-rule="evenodd" clip-rule="evenodd"><defs><style>.fil5{fill:#4a5457}.fil3{fill:#9d9e9e}.fil1{fill:#ebecec}.fil0{fill:#fefefe}.fil4{fill:#0f6a47}.fil2{fill:#ec842f}</style></defs><g id="Слой_x0020_1"><path class="fil0" d="M420 1630c0 70-52 126-115 126-64 0-115-56-115-126s51-127 115-127c63 0 115 57 115 127zm1793-8c0 72-52 130-117 130-64 0-117-58-117-130s53-130 117-130c65 0 117 58 117 130z"/><path class="fil1" d="M1952 574v478l401-27 4-54-109-354z"/><path class="fil2" d="M2614 1460h-211v-125h211zM1669 289H69c-34 0-62 27-62 62v913c0 34 28 62 62 62h1600c35 0 62-28 62-62V351c0-35-27-62-62-62z"/><path class="fil3" d="M2134 1684c-14 13-32 21-53 21-20 0-38-8-52-21-16-14-25-34-25-57 0-5 0-10 1-14 7-36 38-64 76-64s70 28 77 64c1 4 1 9 1 14 0 23-10 43-25 57zm-53-317c-144 0-260 116-260 260s116 260 260 260 261-116 261-260-117-260-261-260zM366 1684c-14 13-33 21-53 21s-39-8-52-21c-16-14-26-34-26-57 0-5 1-10 2-14 2-11 6-22 12-30 14-21 38-34 64-34 27 0 50 13 64 34 6 8 10 19 12 30 1 4 2 9 2 14 0 23-10 43-25 57zm-52-317h-2c-128 0-234 93-256 216-2 14-3 29-3 44 0 144 116 260 260 260s260-116 260-260c0-15-1-30-3-44-21-123-128-216-256-216z"/><path class="fil4" d="M220 1367H0v216h40c0-1 0-2 1-3 17-101 87-181 179-213zm2388 89c-67 2-136 2-203 1-1-40-1-80 0-121 67-1 135-1 202 0 2 41 2 81 1 120zm-622-475c-1-116-3-232 1-347 78 0 156-1 233 2 31 115 68 228 99 344-112 2-222 1-333 1zm635 466c-1-118 2-236-3-355-37-17-76-35-114-53-27-12-53-25-80-38-3-1-6-3-10-4-54-29-52-102-72-154-22-87-57-172-78-259-14-56-22-112-17-170-156-3-310-1-464 0h-2l-1-1v192h1c0 254-3 508 0 762H407c91 32 161 112 179 213v3h1198c39-121 133-238 270-246 150-22 290 94 322 238 100 1 199 1 298 1 0-41 1-84 1-125-18-1-36-3-54-4z"/><path class="fil3" d="M1556 640c0 353-286 640-640 640-353 0-640-287-640-640S563 0 916 0c354 0 640 287 640 640z"/><path class="fil0" d="M412 640c0 279 225 504 504 504V136c-279 0-504 225-504 504z"/><path class="fil1" d="M916 136v1008c279 0 504-225 504-504s-225-504-504-504z"/><path class="fil5" d="M997 640c0 45-36 81-81 81s-81-36-81-81 36-81 81-81 81 36 81 81zm-50-117c0 11-14 20-30 20s-30-9-30-20V226c0-11 13-19 30-19 16 0 30 8 30 19v297zM655 825c-17 8-38 0-47-17-8-18-2-39 15-48l164-81c17-8 37 0 46 17 9 18 3 39-14 48l-164 81z"/></g></svg>