<svg xmlns="http://www.w3.org/2000/svg" width="299" height="209" viewBox="0 0 3841 2682" shape-rendering="geometricPrecision" text-rendering="geometricPrecision" image-rendering="optimizeQuality" fill-rule="evenodd" clip-rule="evenodd"><defs><style>.fil1{fill:#ef9120}.fil2{fill:#9d9e9e}.fil0{fill:#0f6a47}</style></defs><g id="Слой_x0020_1"><path class="fil0" d="M3383 1234c-5 24-31 38-58 32l-834-184c-27-5-44-29-39-53l219-995c6-24 32-39 58-33l835 184c26 6 44 30 39 54l-220 995z"/><path class="fil1" d="M2767 1321c0 27-31 49-69 49H1516c-38 0-69-22-69-49V188c0-27 31-49 69-49h1182c38 0 69 22 69 49v1133z"/><path class="fil2" d="M3792 310H1193c-27 0-49 26-49 57s22 56 49 56h2599c27 0 49-25 49-56 0-32-22-57-49-57zm-164 453H1320c-27 0-49 25-49 57 0 31 22 56 49 56h2308c28 0 50-25 50-56 0-32-22-57-50-57zm-173 453H1421c-27 0-49 25-49 56 0 32 22 57 49 57h2034c28 0 50-25 50-57 0-31-22-56-50-56z"/><path class="fil2" d="M1670 386l-98 14 133 1178 103 25zm391 8l-98 8 72 1212 103-22zm296-17v1241l93-4 5-1237zm454-4l-186 1259 106-43 177-1197zm422 0l-305 1266 109-25 291-1211zm413-21l-403 1226 96 47 399-1233z"/><path class="fil0" d="M3546 1494H1565L1166 208c-6 69-68 83-127 91l408 1306c10 33 37 55 67 55h2032c40 0 72-37 72-83s-32-83-72-83z"/><path class="fil0" d="M1148 142c-24-20-55-33-91-33H128C57 109 0 161 0 224c0 64 57 116 128 116h929c6 0 11-1 16-2 59-6 106-49 112-103 0-3 1-7 1-11 0-32-15-61-38-82zm1841 2303H1402l189-880 100 29-158 733h1456z"/><path class="fil2" d="M1769 2396c0 158-128 286-285 286s-285-128-285-286c0-157 128-285 285-285s285 128 285 285z"/><path class="fil0" d="M1698 2396c0 119-96 214-214 214s-214-95-214-214c0-118 96-214 214-214s214 96 214 214z"/><path class="fil2" d="M3245 2396c0 158-128 286-285 286-158 0-285-128-285-286 0-157 127-285 285-285 157 0 285 128 285 285z"/><path class="fil0" d="M3174 2396c0 119-96 214-214 214s-214-95-214-214c0-118 96-214 214-214s214 96 214 214z"/></g></svg>